<?xml version="1.0" encoding="utf-8"?>
<!-- Generator: Adobe Illustrator 19.2.1, SVG Export Plug-In . SVG Version: 6.00 Build 0)  -->
<!DOCTYPE svg PUBLIC "-//W3C//DTD SVG 1.1//EN" "http://www.w3.org/Graphics/SVG/1.1/DTD/svg11.dtd">
<svg version="1.1"
	 id="Capa_1" xmlns:cc="http://creativecommons.org/ns#" xmlns:dc="http://purl.org/dc/elements/1.1/" xmlns:inkscape="http://www.inkscape.org/namespaces/inkscape" xmlns:rdf="http://www.w3.org/1999/02/22-rdf-syntax-ns#" xmlns:sodipodi="http://sodipodi.sourceforge.net/DTD/sodipodi-0.dtd" xmlns:svg="http://www.w3.org/2000/svg"
	 xmlns="http://www.w3.org/2000/svg" xmlns:xlink="http://www.w3.org/1999/xlink" x="0px" y="0px" viewBox="0 0 56 84"
	 style="enable-background:new 0 0 56 84;" xml:space="preserve">
<style type="text/css">
	.st0{fill:#FFFFFF;}
</style>
<g transform="translate(0,-952.36218)">
	<path class="st0" d="M28,952.4c14.5,16.2,28,35.5,28,52.8c0,17.3-12.5,31.3-28,31.3c-15.5,0-28-14-28-31.2
		C0,987.9,13.5,968.6,28,952.4L28,952.4z M46.2,1000.8c-1.1-0.1-2.1,0.7-2.2,1.8c0,0.2,0,0.3,0,0.5c0.6,6.4-3.3,14.9-8.1,18.1
		c-0.9,0.6-1.2,1.8-0.6,2.8c0.6,0.9,1.8,1.2,2.8,0.6c0.1,0,0.1-0.1,0.1-0.1c6.3-4.4,10.5-13.6,9.7-21.8
		C47.8,1001.7,47.1,1000.9,46.2,1000.8L46.2,1000.8z"/>
</g>
</svg>
