<?xml version="1.0" encoding="utf-8"?>
<!-- Generator: Adobe Illustrator 19.2.1, SVG Export Plug-In . SVG Version: 6.00 Build 0)  -->
<!DOCTYPE svg PUBLIC "-//W3C//DTD SVG 1.1//EN" "http://www.w3.org/Graphics/SVG/1.1/DTD/svg11.dtd">
<svg version="1.1" id="Capa_1" xmlns="http://www.w3.org/2000/svg" xmlns:xlink="http://www.w3.org/1999/xlink" x="0px" y="0px"
	 viewBox="0 0 76.4 62.7" style="enable-background:new 0 0 76.4 62.7;" xml:space="preserve">
<style type="text/css">
	.st0{fill:#FFFFFF;}
</style>
<g>
	<path class="st0" d="M17,9.4c0,0-10.4-0.6-11.8,20.3c0,0-1.2,21.4,18.5,31.8c0,0,0-3.9-4.2-10.6c0,0-8.3-11.6-7.1-23.9
		c0,0,0.2-4.4,6.9-13.1C19.3,13.8,19.7,10.4,17,9.4z"/>
	<path class="st0" d="M15.7,8.3c0,0-26.7,6.1-10.5,42c0,0,4.3,9.6,17.2,12.4c0,0-13.8-8.9-17.2-25.7C5.2,37,1.8,13.1,15.7,8.3z"/>
	<polygon class="st0" points="17.8,8.1 20,11.6 27.1,5.9 25,5.9 25.8,2.6 	"/>
	<path class="st0" d="M26.4,4.6c0,0-1.1-4.6,3.8-4.6c0,0,5.5,1.5,1.7,5.5L26.4,4.6z"/>
	<path class="st0" d="M27.1,16.1c0,0,3.6-1.9,5.5,0l-1.7-9.5c0,0-0.8-2.5-3.8,1L27.1,16.1L27.1,16.1z"/>
	<path class="st0" d="M27.1,17.1c0,0,4.4-3.5,6.9,1.2c0,0,6.2,20.6,42.4,19.7c0,0-10,6.9-28,3.5C48.5,41.4,27.6,39.1,27.1,17.1z"/>
	<path class="st0" d="M26.3,17.5c0,0-6.2,24.5,22.5,29.9c0,0,14.8,3.5,26.8-6.9c0,0-18.2,6.4-31.1,1.5C44.5,42,26.6,35.4,26.3,17.5z
		"/>
	<path class="st0" d="M19.1,16.9c0,0,4,1.1,3.4-2.7l0.6-3.4c0,0-3.8,0-2.5,2.9L19.1,16.9z"/>
	<path class="st0" d="M19.9,17.7l2.6,0.8c0,0,0.3,17.2,7.3,22.4c0,0,7.1,6.2,20.9,9.6c0,0,4.3,3.5,4.7,4.8c0,0-6.8,0.3-15.4-2.3
		c0,0-15-3.2-25.5-23.9C14.5,29.1,15.1,15.9,19.9,17.7z"/>
	<path class="st0" d="M14.5,30.1c0,0-2.5,13.5,10.4,22.8c0,0,11.8,8.4,29.8,3.7c0,0-15.7-1.2-22.6-5.8
		C32.1,50.7,18.2,42.9,14.5,30.1z"/>
</g>
</svg>
