<?xml version="1.0" encoding="utf-8"?>
<!-- Generator: Adobe Illustrator 19.2.1, SVG Export Plug-In . SVG Version: 6.00 Build 0)  -->
<!DOCTYPE svg PUBLIC "-//W3C//DTD SVG 1.1//EN" "http://www.w3.org/Graphics/SVG/1.1/DTD/svg11.dtd">
<svg version="1.1" id="Capa_1" xmlns="http://www.w3.org/2000/svg" xmlns:xlink="http://www.w3.org/1999/xlink" x="0px" y="0px"
	 viewBox="0 0 94.6 71.6" style="enable-background:new 0 0 94.6 71.6;" xml:space="preserve">
<style type="text/css">
	.st0{fill:#FFFFFF;}
</style>
<polygon class="st0" points="0,31.9 38.3,64.6 93.8,34.7 53.4,0.6 54.4,0 94.6,33.4 94.6,41.1 37.8,71.6 0,39.2 "/>
<polygon class="st0" points="2.1,28.5 7,25.5 18.5,35.3 18.6,42.5 "/>
<polygon class="st0" points="19,35.2 19,43.1 45.2,29.1 27.9,14.3 25.8,15.3 37.4,25.3 "/>
<polygon class="st0" points="7.5,25.2 18.8,34.7 36.5,25.1 25.3,15.6 "/>
<polygon class="st0" points="28.9,13.7 34.4,10.7 45.8,20.5 45.5,27.8 "/>
<polygon class="st0" points="35.1,10.3 46.2,19.7 63.6,10.5 52.5,1 "/>
<polygon class="st0" points="22,45.5 27.1,42.7 38.5,52.4 39,59.9 "/>
<polygon class="st0" points="39,52.1 39.5,60 65.3,46.2 47.9,31.4 45.9,32.5 57.5,42.4 "/>
<polygon class="st0" points="27.7,42.3 38.6,51.6 56.3,42.1 45.5,32.8 "/>
<polygon class="st0" points="46.5,20.1 46.1,28.6 69.9,15.9 64,10.9 "/>
<polygon class="st0" points="49,30.8 54.6,27.9 66.1,37.6 66.4,45.6 "/>
<polygon class="st0" points="55.3,27.6 66.1,36.8 83.5,27.5 72.6,18.2 "/>
<polygon class="st0" points="66.6,37.3 67,45.2 90.1,32.8 84.3,27.9 "/>
<polygon class="st0" points="1.6,29.1 18.5,43.4 19,43.9 71.6,15.7 73.5,17.2 20.8,45.5 38.9,60.9 91.7,32.5 93.2,33.7 38.5,63.1 
	0,30 "/>
</svg>
