<?xml version="1.0" encoding="utf-8"?>
<!-- Generator: Adobe Illustrator 19.2.1, SVG Export Plug-In . SVG Version: 6.00 Build 0)  -->
<!DOCTYPE svg PUBLIC "-//W3C//DTD SVG 1.1//EN" "http://www.w3.org/Graphics/SVG/1.1/DTD/svg11.dtd">
<svg version="1.1" id="Capa_1" xmlns="http://www.w3.org/2000/svg" xmlns:xlink="http://www.w3.org/1999/xlink" x="0px" y="0px"
	 viewBox="0 0 81.1 80.1" style="enable-background:new 0 0 81.1 80.1;" xml:space="preserve">
<style type="text/css">
	.st0{fill:none;}
	.st1{fill:#FFFFFF;}
</style>
<g>
	<path class="st0" d="M6.9,42.3c-0.5,0-0.9-0.1-1.4-0.4H5.1c1.2,18.5,16.7,33.3,35.5,33.3s34.3-14.7,35.5-33.3H8.2
		C7.8,42.1,7.3,42.3,6.9,42.3z"/>
	<path class="st0" d="M72.4,36.9c0-0.2,0.1-0.4,0.1-0.6c0-1.8-1.4-3.2-3.2-3.3c-1.4,0.1-2.6-1-2.7-2.4c-0.1-1.7-1.5-3.1-3.1-3.1
		c-0.1,0-0.1,0-0.2,0c-0.7,0-1.4-0.2-1.9-0.7s-0.8-1.2-0.7-1.9c0-0.1,0-0.1,0-0.2c-0.1-1.7-1.5-3.1-3.2-3.2c-1.3,0-2.3-1-2.5-2.2
		c-0.2-1.6-1.5-2.9-3.2-2.9h-0.1c-1.4,0-2.5-1.1-2.5-2.5v-0.1c0-1.7-1.5-3.2-3.2-3.2c-0.1,0-0.1,0-0.1,0c-1.3,0-2.4-1-2.5-2.4
		C43.2,6.4,41.8,5,40,5c-1.7,0-3.2,1.4-3.3,3.1c-0.1,1.3-1.1,2.4-2.5,2.4c-1.8,0-3.2,1.5-3.2,3.2v0.1c0,1.4-1.1,2.6-2.6,2.5
		c-1.6,0-3,1.3-3.2,2.9c-0.1,1.2-1.1,2.2-2.4,2.2c-1.7,0.1-3.1,1.5-3.2,3.2c0,0.1,0,0.2,0,0.2c0,0.7-0.2,1.3-0.7,1.8
		s-1.1,0.8-1.8,0.8H17c-1.7,0-3.1,1.4-3.2,3.1c-0.1,1.3-1.2,2.4-2.5,2.4c-0.1,0-0.1,0-0.2,0c-1.8,0.1-3.2,1.5-3.2,3.3
		c0,0.2,0,0.4,0.1,0.6L72.4,36.9L72.4,36.9z M39.9,13.3c1.2,0,2.3,1,2.3,2.3c0,1.2-1,2.3-2.3,2.3s-2.3-1-2.3-2.3
		S38.7,13.3,39.9,13.3z M39.9,20.9c1.2,0,2.3,1,2.3,2.3c0,1.2-1,2.3-2.3,2.3s-2.3-1-2.3-2.3S38.7,20.9,39.9,20.9z M31.9,20.9
		c1.2,0,2.3,1,2.3,2.3c0,1.2-1,2.3-2.3,2.3s-2.3-1-2.3-2.3S30.7,20.9,31.9,20.9z"/>
	<path class="st1" d="M77.4,36.9c-0.5,0.1,0-0.4,0-0.6c0-3.9-2.7-7.1-6.3-8c-0.9-2.7-3.1-4.8-5.8-5.5c-0.7-2.9-3-5.2-5.9-6
		c-0.9-2.5-3-4.4-5.6-5.1c-0.8-2.9-3.1-5.1-6-5.9C46.8,2.4,43.7,0,40,0s-6.8,2.4-7.9,5.8c-2.8,0.8-5,3-5.8,5.8
		c-2.6,0.7-4.7,2.6-5.6,5.2c-2.9,0.8-5.1,3.1-5.8,6c-2.7,0.7-4.8,2.8-5.6,5.4c-3.6,0.9-6.2,4.2-6.2,8c0,0.2,0,0.4,0.1,0.6l0,0
		c-0.3,0-0.7,0.1-1,0.2C1,37.2,0,38.2,0,39.5c0,22.4,18.2,40.6,40.6,40.6c21.6,0,39.3-17,40.5-38.3C81.1,41.8,81.2,36.2,77.4,36.9z
		 M11.3,32.9c0.1,0,0.1,0,0.2,0c1.3,0,2.4-1,2.5-2.4c0.1-1.7,1.5-3.1,3.2-3.1h0.1c0.7,0,1.3-0.3,1.8-0.8s0.7-1.2,0.7-1.8
		c0,0,0-0.1,0-0.2c0.1-1.7,1.4-3.1,3.2-3.2c1.2-0.1,2.3-1,2.4-2.2c0.2-1.7,1.5-2.9,3.2-2.9c1.5,0.1,2.6-1.1,2.6-2.5v-0.1
		c0-1.7,1.5-3.2,3.2-3.2c1.3,0,2.4-1.1,2.5-2.4C36.9,6.4,38.3,5,40,5s3.2,1.4,3.3,3.1c0.1,1.3,1.2,2.4,2.5,2.4h0.1
		c1.7,0,3.2,1.5,3.2,3.2v0.1c0,1.4,1.1,2.5,2.5,2.5h0.1c1.6,0,3,1.3,3.2,2.9c0.1,1.3,1.2,2.2,2.5,2.2c1.8,0,3.2,1.4,3.2,3.2
		c0,0.1,0,0.1,0,0.2c0,0.7,0.2,1.4,0.7,1.9s1.2,0.8,1.9,0.7c0.1,0,0.1,0,0.2,0c1.7,0.1,3.1,1.4,3.1,3.1c0.1,1.4,1.3,2.5,2.7,2.4
		c1.8,0.1,3.2,1.5,3.2,3.3c0,0.2,0,0.4-0.1,0.6H8.2c0-0.2-0.1-0.4-0.1-0.6C8.1,34.5,9.6,33,11.3,32.9z M40.6,75.1
		c-18.8,0-34.3-14.7-35.5-33.3h0.4c0.4,0.3,0.9,0.4,1.4,0.4s0.9-0.1,1.4-0.4h67.9C74.9,60.4,59.4,75.1,40.6,75.1z"/>
	<circle class="st1" cx="31.9" cy="23.2" r="2.3"/>
	<path class="st1" d="M39.9,25.4c1.2,0,2.3-1,2.3-2.3s-1-2.3-2.3-2.3s-2.3,1-2.3,2.3S38.7,25.4,39.9,25.4z"/>
	<path class="st1" d="M39.9,17.9c1.2,0,2.3-1,2.3-2.3s-1-2.3-2.3-2.3s-2.3,1-2.3,2.3S38.7,17.9,39.9,17.9z"/>
</g>
</svg>
